<?xml version="1.0" encoding="UTF-8" standalone="no"?>
<!DOCTYPE svg PUBLIC "-//W3C//DTD SVG 1.1//EN"
 "http://www.w3.org/Graphics/SVG/1.1/DTD/svg11.dtd">
<!-- Generated by graphviz version 2.42.4 (0)
 -->
<!-- Title: G Pages: 1 -->
<svg width="345pt" height="396pt"
 viewBox="0.00 0.00 344.50 396.00" xmlns="http://www.w3.org/2000/svg" xmlns:xlink="http://www.w3.org/1999/xlink">
<g id="graph0" class="graph" transform="scale(1 1) rotate(0) translate(4 392)">
<title>G</title>
<polygon fill="white" stroke="transparent" points="-4,4 -4,-392 340.5,-392 340.5,4 -4,4"/>
<!-- users -->
<g id="node1" class="node">
<title>users</title>
<path fill="#eef2ff" stroke="#2f5d9f" d="M139,-388C139,-388 12,-388 12,-388 6,-388 0,-382 0,-376 0,-376 0,-356 0,-356 0,-350 6,-344 12,-344 12,-344 139,-344 139,-344 145,-344 151,-350 151,-356 151,-356 151,-376 151,-376 151,-382 145,-388 139,-388"/>
<text text-anchor="middle" x="75.5" y="-375.2" font-family="Arial" font-size="11.00">Пользователи</text>
<text text-anchor="middle" x="75.5" y="-363.2" font-family="Arial" font-size="11.00">(администратор, инженер,</text>
<text text-anchor="middle" x="75.5" y="-351.2" font-family="Arial" font-size="11.00">наблюдатель)</text>
</g>
<!-- browser -->
<g id="node2" class="node">
<title>browser</title>
<path fill="#eef2ff" stroke="#2f5d9f" d="M136.5,-294C136.5,-294 14.5,-294 14.5,-294 8.5,-294 2.5,-288 2.5,-282 2.5,-282 2.5,-270 2.5,-270 2.5,-264 8.5,-258 14.5,-258 14.5,-258 136.5,-258 136.5,-258 142.5,-258 148.5,-264 148.5,-270 148.5,-270 148.5,-282 148.5,-282 148.5,-288 142.5,-294 136.5,-294"/>
<text text-anchor="middle" x="75.5" y="-279.2" font-family="Arial" font-size="11.00">Веб&#45;браузер</text>
<text text-anchor="middle" x="75.5" y="-267.2" font-family="Arial" font-size="11.00">HTML + CSS + JavaScript</text>
</g>
<!-- users&#45;&gt;browser -->
<g id="edge1" class="edge">
<title>users&#45;&gt;browser</title>
<path fill="none" stroke="#6b7280" d="M75.5,-343.7C75.5,-331.26 75.5,-315.5 75.5,-302.42"/>
<polygon fill="#6b7280" stroke="#6b7280" points="78.3,-302.27 75.5,-294.27 72.7,-302.27 78.3,-302.27"/>
</g>
<!-- server -->
<g id="node3" class="node">
<title>server</title>
<path fill="#eef2ff" stroke="#2f5d9f" d="M132.5,-208C132.5,-208 18.5,-208 18.5,-208 12.5,-208 6.5,-202 6.5,-196 6.5,-196 6.5,-184 6.5,-184 6.5,-178 12.5,-172 18.5,-172 18.5,-172 132.5,-172 132.5,-172 138.5,-172 144.5,-178 144.5,-184 144.5,-184 144.5,-196 144.5,-196 144.5,-202 138.5,-208 132.5,-208"/>
<text text-anchor="middle" x="75.5" y="-193.2" font-family="Arial" font-size="11.00">Серверное приложение</text>
<text text-anchor="middle" x="75.5" y="-181.2" font-family="Arial" font-size="11.00">Go + Fiber</text>
</g>
<!-- browser&#45;&gt;server -->
<g id="edge2" class="edge">
<title>browser&#45;&gt;server</title>
<path fill="none" stroke="#6b7280" d="M75.5,-257.6C75.5,-245.69 75.5,-229.71 75.5,-216.4"/>
<polygon fill="#6b7280" stroke="#6b7280" points="78.3,-216.1 75.5,-208.1 72.7,-216.1 78.3,-216.1"/>
</g>
<!-- auth -->
<g id="node4" class="node">
<title>auth</title>
<path fill="#ffffff" stroke="#2f5d9f" d="M135,-122C135,-122 16,-122 16,-122 10,-122 4,-116 4,-110 4,-110 4,-98 4,-98 4,-92 10,-86 16,-86 16,-86 135,-86 135,-86 141,-86 147,-92 147,-98 147,-98 147,-110 147,-110 147,-116 141,-122 135,-122"/>
<text text-anchor="middle" x="75.5" y="-107.2" font-family="Arial" font-size="11.00">Модуль аутентификации</text>
<text text-anchor="middle" x="75.5" y="-95.2" font-family="Arial" font-size="11.00">и авторизации</text>
</g>
<!-- server&#45;&gt;auth -->
<g id="edge3" class="edge">
<title>server&#45;&gt;auth</title>
<path fill="none" stroke="#6b7280" d="M75.5,-171.6C75.5,-159.69 75.5,-143.71 75.5,-130.4"/>
<polygon fill="#6b7280" stroke="#6b7280" points="78.3,-130.1 75.5,-122.1 72.7,-130.1 78.3,-130.1"/>
</g>
<!-- domain -->
<g id="node5" class="node">
<title>domain</title>
<path fill="#ffffff" stroke="#2f5d9f" d="M285,-122C285,-122 202,-122 202,-122 196,-122 190,-116 190,-110 190,-110 190,-98 190,-98 190,-92 196,-86 202,-86 202,-86 285,-86 285,-86 291,-86 297,-92 297,-98 297,-98 297,-110 297,-110 297,-116 291,-122 285,-122"/>
<text text-anchor="middle" x="243.5" y="-107.2" font-family="Arial" font-size="11.00">Сервисный слой /</text>
<text text-anchor="middle" x="243.5" y="-95.2" font-family="Arial" font-size="11.00">бизнес&#45;логика</text>
</g>
<!-- server&#45;&gt;domain -->
<g id="edge4" class="edge">
<title>server&#45;&gt;domain</title>
<path fill="none" stroke="#6b7280" d="M109.9,-171.8C136.6,-158.45 173.72,-139.89 202.06,-125.72"/>
<polygon fill="#6b7280" stroke="#6b7280" points="203.53,-128.12 209.43,-122.03 201.02,-123.11 203.53,-128.12"/>
</g>
<!-- db -->
<g id="node7" class="node">
<title>db</title>
<path fill="#f9fafb" stroke="#2f5d9f" d="M214.5,-36C214.5,-36 162.5,-36 162.5,-36 156.5,-36 150.5,-30 150.5,-24 150.5,-24 150.5,-12 150.5,-12 150.5,-6 156.5,0 162.5,0 162.5,0 214.5,0 214.5,0 220.5,0 226.5,-6 226.5,-12 226.5,-12 226.5,-24 226.5,-24 226.5,-30 220.5,-36 214.5,-36"/>
<text text-anchor="middle" x="188.5" y="-15.2" font-family="Arial" font-size="11.00">PostgreSQL</text>
</g>
<!-- domain&#45;&gt;db -->
<g id="edge7" class="edge">
<title>domain&#45;&gt;db</title>
<path fill="none" stroke="#6b7280" d="M232.1,-85.6C224.01,-73.24 213.05,-56.49 204.14,-42.88"/>
<polygon fill="#6b7280" stroke="#6b7280" points="206.42,-41.25 199.69,-36.1 201.73,-44.32 206.42,-41.25"/>
</g>
<!-- storage -->
<g id="node8" class="node">
<title>storage</title>
<path fill="#f9fafb" stroke="#2f5d9f" d="M324.5,-36C324.5,-36 274.5,-36 274.5,-36 268.5,-36 262.5,-30 262.5,-24 262.5,-24 262.5,-12 262.5,-12 262.5,-6 268.5,0 274.5,0 274.5,0 324.5,0 324.5,0 330.5,0 336.5,-6 336.5,-12 336.5,-12 336.5,-24 336.5,-24 336.5,-30 330.5,-36 324.5,-36"/>
<text text-anchor="middle" x="299.5" y="-21.2" font-family="Arial" font-size="11.00">Файловое</text>
<text text-anchor="middle" x="299.5" y="-9.2" font-family="Arial" font-size="11.00">хранилище</text>
</g>
<!-- domain&#45;&gt;storage -->
<g id="edge8" class="edge">
<title>domain&#45;&gt;storage</title>
<path fill="none" stroke="#6b7280" d="M255.1,-85.6C263.34,-73.24 274.51,-56.49 283.58,-42.88"/>
<polygon fill="#6b7280" stroke="#6b7280" points="286,-44.3 288.1,-36.1 281.34,-41.2 286,-44.3"/>
</g>
<!-- api -->
<g id="node6" class="node">
<title>api</title>
<path fill="#ffffff" stroke="#2f5d9f" d="M310.5,-208C310.5,-208 192.5,-208 192.5,-208 186.5,-208 180.5,-202 180.5,-196 180.5,-196 180.5,-184 180.5,-184 180.5,-178 186.5,-172 192.5,-172 192.5,-172 310.5,-172 310.5,-172 316.5,-172 322.5,-178 322.5,-184 322.5,-184 322.5,-196 322.5,-196 322.5,-202 316.5,-208 310.5,-208"/>
<text text-anchor="middle" x="251.5" y="-193.2" font-family="Arial" font-size="11.00">HTTP API</text>
<text text-anchor="middle" x="251.5" y="-181.2" font-family="Arial" font-size="11.00">для локального клиента</text>
</g>
<!-- api&#45;&gt;domain -->
<g id="edge6" class="edge">
<title>api&#45;&gt;domain</title>
<path fill="none" stroke="#6b7280" d="M249.84,-171.6C248.71,-159.69 247.19,-143.71 245.92,-130.4"/>
<polygon fill="#6b7280" stroke="#6b7280" points="248.67,-129.79 245.13,-122.1 243.1,-130.32 248.67,-129.79"/>
</g>
<!-- agent -->
<g id="node9" class="node">
<title>agent</title>
<path fill="#eef2ff" stroke="#2f5d9f" d="M296,-294C296,-294 207,-294 207,-294 201,-294 195,-288 195,-282 195,-282 195,-270 195,-270 195,-264 201,-258 207,-258 207,-258 296,-258 296,-258 302,-258 308,-264 308,-270 308,-270 308,-282 308,-282 308,-288 302,-294 296,-294"/>
<text text-anchor="middle" x="251.5" y="-279.2" font-family="Arial" font-size="11.00">Локальный клиент</text>
<text text-anchor="middle" x="251.5" y="-267.2" font-family="Arial" font-size="11.00">сбора данных</text>
</g>
<!-- agent&#45;&gt;api -->
<g id="edge5" class="edge">
<title>agent&#45;&gt;api</title>
<path fill="none" stroke="#6b7280" d="M251.5,-257.6C251.5,-245.69 251.5,-229.71 251.5,-216.4"/>
<polygon fill="#6b7280" stroke="#6b7280" points="254.3,-216.1 251.5,-208.1 248.7,-216.1 254.3,-216.1"/>
</g>
</g>
</svg>
