<?xml version="1.0" encoding="UTF-8" standalone="no"?>
<!DOCTYPE svg PUBLIC "-//W3C//DTD SVG 1.1//EN"
 "http://www.w3.org/Graphics/SVG/1.1/DTD/svg11.dtd">
<!-- Generated by graphviz version 2.42.4 (0)
 -->
<!-- Title: G Pages: 1 -->
<svg width="627pt" height="757pt"
 viewBox="0.00 0.00 627.00 757.00" xmlns="http://www.w3.org/2000/svg" xmlns:xlink="http://www.w3.org/1999/xlink">
<g id="graph0" class="graph" transform="scale(1 1) rotate(0) translate(4 753)">
<title>G</title>
<polygon fill="white" stroke="transparent" points="-4,4 -4,-753 623,-753 623,4 -4,4"/>
<!-- role -->
<g id="node1" class="node">
<title>role</title>
<polygon fill="#f9fafb" stroke="#2f5d9f" stroke-width="1.3" points="0,-636 0,-711 54,-711 54,-636 0,-636"/>
<text text-anchor="middle" x="27" y="-695" font-family="Arial" font-size="15.00">Роль</text>
<polyline fill="none" stroke="#2f5d9f" stroke-width="1.3" points="0,-686 54,-686 "/>
<text text-anchor="middle" x="27" y="-670" font-family="Arial" font-size="15.00">id</text>
<polyline fill="none" stroke="#2f5d9f" stroke-width="1.3" points="0,-661 54,-661 "/>
<text text-anchor="middle" x="27" y="-645" font-family="Arial" font-size="15.00">name</text>
</g>
<!-- user -->
<g id="node2" class="node">
<title>user</title>
<polygon fill="#f9fafb" stroke="#2f5d9f" stroke-width="1.3" points="113.5,-598.5 113.5,-748.5 226.5,-748.5 226.5,-598.5 113.5,-598.5"/>
<text text-anchor="middle" x="170" y="-732.5" font-family="Arial" font-size="15.00">Пользователь</text>
<polyline fill="none" stroke="#2f5d9f" stroke-width="1.3" points="113.5,-723.5 226.5,-723.5 "/>
<text text-anchor="middle" x="170" y="-707.5" font-family="Arial" font-size="15.00">id</text>
<polyline fill="none" stroke="#2f5d9f" stroke-width="1.3" points="113.5,-698.5 226.5,-698.5 "/>
<text text-anchor="middle" x="170" y="-682.5" font-family="Arial" font-size="15.00">full_name</text>
<polyline fill="none" stroke="#2f5d9f" stroke-width="1.3" points="113.5,-673.5 226.5,-673.5 "/>
<text text-anchor="middle" x="170" y="-657.5" font-family="Arial" font-size="15.00">login</text>
<polyline fill="none" stroke="#2f5d9f" stroke-width="1.3" points="113.5,-648.5 226.5,-648.5 "/>
<text text-anchor="middle" x="170" y="-632.5" font-family="Arial" font-size="15.00">email</text>
<polyline fill="none" stroke="#2f5d9f" stroke-width="1.3" points="113.5,-623.5 226.5,-623.5 "/>
<text text-anchor="middle" x="170" y="-607.5" font-family="Arial" font-size="15.00">status</text>
</g>
<!-- role&#45;&gt;user -->
<g id="edge1" class="edge">
<title>role&#45;&gt;user</title>
<path fill="none" stroke="#6b7280" d="M54.23,-673C54.23,-673 105.26,-673 105.26,-673"/>
<polygon fill="#6b7280" stroke="#6b7280" points="105.26,-675.8 113.26,-673 105.26,-670.2 105.26,-675.8"/>
</g>
<!-- access -->
<g id="node3" class="node">
<title>access</title>
<polygon fill="#f9fafb" stroke="#2f5d9f" stroke-width="1.3" points="287.5,-623.5 287.5,-723.5 446.5,-723.5 446.5,-623.5 287.5,-623.5"/>
<text text-anchor="middle" x="367" y="-707.5" font-family="Arial" font-size="15.00">Назначение доступа</text>
<polyline fill="none" stroke="#2f5d9f" stroke-width="1.3" points="287.5,-698.5 446.5,-698.5 "/>
<text text-anchor="middle" x="367" y="-682.5" font-family="Arial" font-size="15.00">user_id</text>
<polyline fill="none" stroke="#2f5d9f" stroke-width="1.3" points="287.5,-673.5 446.5,-673.5 "/>
<text text-anchor="middle" x="367" y="-657.5" font-family="Arial" font-size="15.00">object_id</text>
<polyline fill="none" stroke="#2f5d9f" stroke-width="1.3" points="287.5,-648.5 446.5,-648.5 "/>
<text text-anchor="middle" x="367" y="-632.5" font-family="Arial" font-size="15.00">access_level</text>
</g>
<!-- user&#45;&gt;access -->
<g id="edge2" class="edge">
<title>user&#45;&gt;access</title>
<path fill="none" stroke="#6b7280" d="M226.72,-673C226.72,-673 279.24,-673 279.24,-673"/>
<polygon fill="#6b7280" stroke="#6b7280" points="279.24,-675.8 287.24,-673 279.24,-670.2 279.24,-675.8"/>
</g>
<!-- sync -->
<g id="node6" class="node">
<title>sync</title>
<polygon fill="#f9fafb" stroke="#2f5d9f" stroke-width="1.3" points="80,-413.5 80,-538.5 256,-538.5 256,-413.5 80,-413.5"/>
<text text-anchor="middle" x="168" y="-522.5" font-family="Arial" font-size="15.00">Сессия синхронизации</text>
<polyline fill="none" stroke="#2f5d9f" stroke-width="1.3" points="80,-513.5 256,-513.5 "/>
<text text-anchor="middle" x="168" y="-497.5" font-family="Arial" font-size="15.00">id</text>
<polyline fill="none" stroke="#2f5d9f" stroke-width="1.3" points="80,-488.5 256,-488.5 "/>
<text text-anchor="middle" x="168" y="-472.5" font-family="Arial" font-size="15.00">session_key</text>
<polyline fill="none" stroke="#2f5d9f" stroke-width="1.3" points="80,-463.5 256,-463.5 "/>
<text text-anchor="middle" x="168" y="-447.5" font-family="Arial" font-size="15.00">started_at</text>
<polyline fill="none" stroke="#2f5d9f" stroke-width="1.3" points="80,-438.5 256,-438.5 "/>
<text text-anchor="middle" x="168" y="-422.5" font-family="Arial" font-size="15.00">status</text>
</g>
<!-- user&#45;&gt;sync -->
<g id="edge5" class="edge">
<title>user&#45;&gt;sync</title>
<path fill="none" stroke="#6b7280" d="M170,-598.27C170,-598.27 170,-546.81 170,-546.81"/>
<polygon fill="#6b7280" stroke="#6b7280" points="172.8,-546.81 170,-538.81 167.2,-546.81 172.8,-546.81"/>
<text text-anchor="middle" x="179.5" y="-565.4" font-family="Arial" font-size="12.00">1:N</text>
</g>
<!-- object -->
<g id="node4" class="node">
<title>object</title>
<polygon fill="#f9fafb" stroke="#2f5d9f" stroke-width="1.3" points="285.5,-413.5 285.5,-538.5 452.5,-538.5 452.5,-413.5 285.5,-413.5"/>
<text text-anchor="middle" x="369" y="-522.5" font-family="Arial" font-size="15.00">Объект эксплуатации</text>
<polyline fill="none" stroke="#2f5d9f" stroke-width="1.3" points="285.5,-513.5 452.5,-513.5 "/>
<text text-anchor="middle" x="369" y="-497.5" font-family="Arial" font-size="15.00">id</text>
<polyline fill="none" stroke="#2f5d9f" stroke-width="1.3" points="285.5,-488.5 452.5,-488.5 "/>
<text text-anchor="middle" x="369" y="-472.5" font-family="Arial" font-size="15.00">name</text>
<polyline fill="none" stroke="#2f5d9f" stroke-width="1.3" points="285.5,-463.5 452.5,-463.5 "/>
<text text-anchor="middle" x="369" y="-447.5" font-family="Arial" font-size="15.00">type</text>
<polyline fill="none" stroke="#2f5d9f" stroke-width="1.3" points="285.5,-438.5 452.5,-438.5 "/>
<text text-anchor="middle" x="369" y="-422.5" font-family="Arial" font-size="15.00">status</text>
</g>
<!-- access&#45;&gt;object -->
<g id="edge3" class="edge">
<title>access&#45;&gt;object</title>
<path fill="none" stroke="#6b7280" d="M367,-623.41C367,-623.41 367,-546.79 367,-546.79"/>
<polygon fill="#6b7280" stroke="#6b7280" points="369.8,-546.79 367,-538.79 364.2,-546.79 369.8,-546.79"/>
<text text-anchor="middle" x="377.5" y="-565.4" font-family="Arial" font-size="12.00">N:1</text>
</g>
<!-- controller -->
<g id="node5" class="node">
<title>controller</title>
<polygon fill="#f9fafb" stroke="#2f5d9f" stroke-width="1.3" points="319,-203.5 319,-353.5 419,-353.5 419,-203.5 319,-203.5"/>
<text text-anchor="middle" x="369" y="-337.5" font-family="Arial" font-size="15.00">Контроллер</text>
<polyline fill="none" stroke="#2f5d9f" stroke-width="1.3" points="319,-328.5 419,-328.5 "/>
<text text-anchor="middle" x="369" y="-312.5" font-family="Arial" font-size="15.00">id</text>
<polyline fill="none" stroke="#2f5d9f" stroke-width="1.3" points="319,-303.5 419,-303.5 "/>
<text text-anchor="middle" x="369" y="-287.5" font-family="Arial" font-size="15.00">name</text>
<polyline fill="none" stroke="#2f5d9f" stroke-width="1.3" points="319,-278.5 419,-278.5 "/>
<text text-anchor="middle" x="369" y="-262.5" font-family="Arial" font-size="15.00">ip_address</text>
<polyline fill="none" stroke="#2f5d9f" stroke-width="1.3" points="319,-253.5 419,-253.5 "/>
<text text-anchor="middle" x="369" y="-237.5" font-family="Arial" font-size="15.00">model</text>
<polyline fill="none" stroke="#2f5d9f" stroke-width="1.3" points="319,-228.5 419,-228.5 "/>
<text text-anchor="middle" x="369" y="-212.5" font-family="Arial" font-size="15.00">firmware</text>
</g>
<!-- object&#45;&gt;controller -->
<g id="edge4" class="edge">
<title>object&#45;&gt;controller</title>
<path fill="none" stroke="#6b7280" d="M369,-413.24C369,-413.24 369,-361.54 369,-361.54"/>
<polygon fill="#6b7280" stroke="#6b7280" points="371.8,-361.54 369,-353.54 366.2,-361.54 371.8,-361.54"/>
<text text-anchor="middle" x="378.5" y="-380.4" font-family="Arial" font-size="12.00">1:N</text>
</g>
<!-- config -->
<g id="node7" class="node">
<title>config</title>
<polygon fill="#f9fafb" stroke="#2f5d9f" stroke-width="1.3" points="102,-18.5 102,-143.5 218,-143.5 218,-18.5 102,-18.5"/>
<text text-anchor="middle" x="160" y="-127.5" font-family="Arial" font-size="15.00">Конфигурация</text>
<polyline fill="none" stroke="#2f5d9f" stroke-width="1.3" points="102,-118.5 218,-118.5 "/>
<text text-anchor="middle" x="160" y="-102.5" font-family="Arial" font-size="15.00">id</text>
<polyline fill="none" stroke="#2f5d9f" stroke-width="1.3" points="102,-93.5 218,-93.5 "/>
<text text-anchor="middle" x="160" y="-77.5" font-family="Arial" font-size="15.00">version_label</text>
<polyline fill="none" stroke="#2f5d9f" stroke-width="1.3" points="102,-68.5 218,-68.5 "/>
<text text-anchor="middle" x="160" y="-52.5" font-family="Arial" font-size="15.00">captured_at</text>
<polyline fill="none" stroke="#2f5d9f" stroke-width="1.3" points="102,-43.5 218,-43.5 "/>
<text text-anchor="middle" x="160" y="-27.5" font-family="Arial" font-size="15.00">is_current</text>
</g>
<!-- controller&#45;&gt;config -->
<g id="edge8" class="edge">
<title>controller&#45;&gt;config</title>
<path fill="none" stroke="#6b7280" d="M318.67,-278C262.48,-278 179.33,-278 179.33,-278 179.33,-278 179.33,-151.6 179.33,-151.6"/>
<polygon fill="#6b7280" stroke="#6b7280" points="182.13,-151.6 179.33,-143.6 176.53,-151.6 182.13,-151.6"/>
<text text-anchor="middle" x="299.5" y="-170.4" font-family="Arial" font-size="12.00">1:N</text>
</g>
<!-- diag -->
<g id="node8" class="node">
<title>diag</title>
<polygon fill="#f9fafb" stroke="#2f5d9f" stroke-width="1.3" points="248.5,-18.5 248.5,-143.5 433.5,-143.5 433.5,-18.5 248.5,-18.5"/>
<text text-anchor="middle" x="341" y="-127.5" font-family="Arial" font-size="15.00">Диагностическая запись</text>
<polyline fill="none" stroke="#2f5d9f" stroke-width="1.3" points="248.5,-118.5 433.5,-118.5 "/>
<text text-anchor="middle" x="341" y="-102.5" font-family="Arial" font-size="15.00">id</text>
<polyline fill="none" stroke="#2f5d9f" stroke-width="1.3" points="248.5,-93.5 433.5,-93.5 "/>
<text text-anchor="middle" x="341" y="-77.5" font-family="Arial" font-size="15.00">happened_at</text>
<polyline fill="none" stroke="#2f5d9f" stroke-width="1.3" points="248.5,-68.5 433.5,-68.5 "/>
<text text-anchor="middle" x="341" y="-52.5" font-family="Arial" font-size="15.00">level</text>
<polyline fill="none" stroke="#2f5d9f" stroke-width="1.3" points="248.5,-43.5 433.5,-43.5 "/>
<text text-anchor="middle" x="341" y="-27.5" font-family="Arial" font-size="15.00">message</text>
</g>
<!-- controller&#45;&gt;diag -->
<g id="edge9" class="edge">
<title>controller&#45;&gt;diag</title>
<path fill="none" stroke="#6b7280" d="M369,-203.27C369,-203.27 369,-151.81 369,-151.81"/>
<polygon fill="#6b7280" stroke="#6b7280" points="371.8,-151.81 369,-143.81 366.2,-151.81 371.8,-151.81"/>
<text text-anchor="middle" x="378.5" y="-170.4" font-family="Arial" font-size="12.00">1:N</text>
</g>
<!-- attach -->
<g id="node9" class="node">
<title>attach</title>
<polygon fill="#f9fafb" stroke="#2f5d9f" stroke-width="1.3" points="493,-18.5 493,-143.5 619,-143.5 619,-18.5 493,-18.5"/>
<text text-anchor="middle" x="556" y="-127.5" font-family="Arial" font-size="15.00">Файл&#45;вложение</text>
<polyline fill="none" stroke="#2f5d9f" stroke-width="1.3" points="493,-118.5 619,-118.5 "/>
<text text-anchor="middle" x="556" y="-102.5" font-family="Arial" font-size="15.00">id</text>
<polyline fill="none" stroke="#2f5d9f" stroke-width="1.3" points="493,-93.5 619,-93.5 "/>
<text text-anchor="middle" x="556" y="-77.5" font-family="Arial" font-size="15.00">file_name</text>
<polyline fill="none" stroke="#2f5d9f" stroke-width="1.3" points="493,-68.5 619,-68.5 "/>
<text text-anchor="middle" x="556" y="-52.5" font-family="Arial" font-size="15.00">mime_type</text>
<polyline fill="none" stroke="#2f5d9f" stroke-width="1.3" points="493,-43.5 619,-43.5 "/>
<text text-anchor="middle" x="556" y="-27.5" font-family="Arial" font-size="15.00">storage_path</text>
</g>
<!-- controller&#45;&gt;attach -->
<g id="edge10" class="edge">
<title>controller&#45;&gt;attach</title>
<path fill="none" stroke="#6b7280" d="M419.11,-278C474.5,-278 556,-278 556,-278 556,-278 556,-151.6 556,-151.6"/>
<polygon fill="#6b7280" stroke="#6b7280" points="558.8,-151.6 556,-143.6 553.2,-151.6 558.8,-151.6"/>
<text text-anchor="middle" x="498.5" y="-170.4" font-family="Arial" font-size="12.00">1:N</text>
</g>
<!-- sync&#45;&gt;config -->
<g id="edge6" class="edge">
<title>sync&#45;&gt;config</title>
<path fill="none" stroke="#6b7280" d="M140.67,-413.41C140.67,-413.41 140.67,-151.62 140.67,-151.62"/>
<polygon fill="#6b7280" stroke="#6b7280" points="143.47,-151.62 140.67,-143.62 137.87,-151.62 143.47,-151.62"/>
<text text-anchor="middle" x="169.5" y="-275.4" font-family="Arial" font-size="12.00">1:N</text>
</g>
<!-- sync&#45;&gt;diag -->
<g id="edge7" class="edge">
<title>sync&#45;&gt;diag</title>
<path fill="none" stroke="#6b7280" d="M252.25,-413.41C252.25,-413.41 252.25,-151.62 252.25,-151.62"/>
<polygon fill="#6b7280" stroke="#6b7280" points="255.05,-151.62 252.25,-143.62 249.45,-151.62 255.05,-151.62"/>
<text text-anchor="middle" x="248.5" y="-275.4" font-family="Arial" font-size="12.00">1:N</text>
</g>
<!-- config&#45;&gt;attach -->
<g id="edge11" class="edge">
<title>config&#45;&gt;attach</title>
<path fill="none" stroke="#6b7280" d="M160,-18.38C160,-7.71 160,0 160,0 160,0 556,0 556,0 556,0 556,-10.38 556,-10.38"/>
<polygon fill="#6b7280" stroke="#6b7280" points="553.2,-10.38 556,-18.38 558.8,-10.38 553.2,-10.38"/>
<text text-anchor="middle" x="324" y="-170.4" font-family="Arial" font-size="12.00">1:N</text>
</g>
<!-- diag&#45;&gt;attach -->
<g id="edge12" class="edge">
<title>diag&#45;&gt;attach</title>
<path fill="none" stroke="#6b7280" d="M433.74,-81C433.74,-81 484.99,-81 484.99,-81"/>
<polygon fill="#6b7280" stroke="#6b7280" points="484.99,-83.8 492.99,-81 484.99,-78.2 484.99,-83.8"/>
</g>
</g>
</svg>
