<?xml version="1.0" encoding="UTF-8" standalone="no"?>
<!DOCTYPE svg PUBLIC "-//W3C//DTD SVG 1.1//EN"
 "http://www.w3.org/Graphics/SVG/1.1/DTD/svg11.dtd">
<!-- Generated by graphviz version 2.42.4 (0)
 -->
<!-- Title: G Pages: 1 -->
<svg width="450pt" height="760pt"
 viewBox="0.00 0.00 450.00 760.00" xmlns="http://www.w3.org/2000/svg" xmlns:xlink="http://www.w3.org/1999/xlink">
<g id="graph0" class="graph" transform="scale(1 1) rotate(0) translate(4 756)">
<title>G</title>
<polygon fill="white" stroke="transparent" points="-4,4 -4,-756 446,-756 446,4 -4,4"/>
<!-- start -->
<g id="node1" class="node">
<title>start</title>
<path fill="#eef2ff" stroke="#2f5d9f" stroke-width="1.4" d="M350,-752C350,-752 108,-752 108,-752 102,-752 96,-746 96,-740 96,-740 96,-716 96,-716 96,-710 102,-704 108,-704 108,-704 350,-704 350,-704 356,-704 362,-710 362,-716 362,-716 362,-740 362,-740 362,-746 356,-752 350,-752"/>
<text text-anchor="middle" x="229" y="-733" font-family="Arial" font-size="15.00">1. Инженер запускает сбор данных</text>
<text text-anchor="middle" x="229" y="-716" font-family="Arial" font-size="15.00">на объекте эксплуатации</text>
</g>
<!-- collect -->
<g id="node2" class="node">
<title>collect</title>
<path fill="#ffffff" stroke="#2f5d9f" stroke-width="1.4" d="M368.5,-664C368.5,-664 89.5,-664 89.5,-664 83.5,-664 77.5,-658 77.5,-652 77.5,-652 77.5,-628 77.5,-628 77.5,-622 83.5,-616 89.5,-616 89.5,-616 368.5,-616 368.5,-616 374.5,-616 380.5,-622 380.5,-628 380.5,-628 380.5,-652 380.5,-652 380.5,-658 374.5,-664 368.5,-664"/>
<text text-anchor="middle" x="229" y="-645" font-family="Arial" font-size="15.00">2. Локальный клиент обнаруживает ПЛК</text>
<text text-anchor="middle" x="229" y="-628" font-family="Arial" font-size="15.00">и формирует пакет данных</text>
</g>
<!-- start&#45;&gt;collect -->
<g id="edge1" class="edge">
<title>start&#45;&gt;collect</title>
<path fill="none" stroke="#6b7280" d="M229,-703.95C229,-703.95 229,-671.52 229,-671.52"/>
<polygon fill="#6b7280" stroke="#6b7280" points="231.63,-671.52 229,-664.02 226.38,-671.52 231.63,-671.52"/>
</g>
<!-- create -->
<g id="node3" class="node">
<title>create</title>
<path fill="#ffffff" stroke="#2f5d9f" stroke-width="1.4" d="M332.5,-576C332.5,-576 125.5,-576 125.5,-576 119.5,-576 113.5,-570 113.5,-564 113.5,-564 113.5,-540 113.5,-540 113.5,-534 119.5,-528 125.5,-528 125.5,-528 332.5,-528 332.5,-528 338.5,-528 344.5,-534 344.5,-540 344.5,-540 344.5,-564 344.5,-564 344.5,-570 338.5,-576 332.5,-576"/>
<text text-anchor="middle" x="229" y="-557" font-family="Arial" font-size="15.00">3. Запрос на создание сессии</text>
<text text-anchor="middle" x="229" y="-540" font-family="Arial" font-size="15.00">синхронизации</text>
</g>
<!-- collect&#45;&gt;create -->
<g id="edge2" class="edge">
<title>collect&#45;&gt;create</title>
<path fill="none" stroke="#6b7280" d="M229,-615.95C229,-615.95 229,-583.52 229,-583.52"/>
<polygon fill="#6b7280" stroke="#6b7280" points="231.63,-583.52 229,-576.02 226.38,-583.52 231.63,-583.52"/>
</g>
<!-- auth -->
<g id="node4" class="node">
<title>auth</title>
<path fill="#ffffff" stroke="#2f5d9f" stroke-width="1.4" d="M349.5,-488C349.5,-488 108.5,-488 108.5,-488 102.5,-488 96.5,-482 96.5,-476 96.5,-476 96.5,-452 96.5,-452 96.5,-446 102.5,-440 108.5,-440 108.5,-440 349.5,-440 349.5,-440 355.5,-440 361.5,-446 361.5,-452 361.5,-452 361.5,-476 361.5,-476 361.5,-482 355.5,-488 349.5,-488"/>
<text text-anchor="middle" x="229" y="-469" font-family="Arial" font-size="15.00">4. Серверный API проверяет токен</text>
<text text-anchor="middle" x="229" y="-452" font-family="Arial" font-size="15.00">и область доступа</text>
</g>
<!-- create&#45;&gt;auth -->
<g id="edge3" class="edge">
<title>create&#45;&gt;auth</title>
<path fill="none" stroke="#6b7280" d="M229,-527.95C229,-527.95 229,-495.52 229,-495.52"/>
<polygon fill="#6b7280" stroke="#6b7280" points="231.63,-495.52 229,-488.02 226.38,-495.52 231.63,-495.52"/>
</g>
<!-- session -->
<g id="node5" class="node">
<title>session</title>
<path fill="#ffffff" stroke="#2f5d9f" stroke-width="1.4" d="M347,-400C347,-400 111,-400 111,-400 105,-400 99,-394 99,-388 99,-388 99,-364 99,-364 99,-358 105,-352 111,-352 111,-352 347,-352 347,-352 353,-352 359,-358 359,-364 359,-364 359,-388 359,-388 359,-394 353,-400 347,-400"/>
<text text-anchor="middle" x="229" y="-381" font-family="Arial" font-size="15.00">5. В PostgreSQL создается запись</text>
<text text-anchor="middle" x="229" y="-364" font-family="Arial" font-size="15.00">SyncSession</text>
</g>
<!-- auth&#45;&gt;session -->
<g id="edge4" class="edge">
<title>auth&#45;&gt;session</title>
<path fill="none" stroke="#6b7280" d="M229,-439.95C229,-439.95 229,-407.52 229,-407.52"/>
<polygon fill="#6b7280" stroke="#6b7280" points="231.63,-407.52 229,-400.02 226.38,-407.52 231.63,-407.52"/>
</g>
<!-- upload -->
<g id="node6" class="node">
<title>upload</title>
<path fill="#ffffff" stroke="#2f5d9f" stroke-width="1.4" d="M390.5,-312C390.5,-312 67.5,-312 67.5,-312 61.5,-312 55.5,-306 55.5,-300 55.5,-300 55.5,-276 55.5,-276 55.5,-270 61.5,-264 67.5,-264 67.5,-264 390.5,-264 390.5,-264 396.5,-264 402.5,-270 402.5,-276 402.5,-276 402.5,-300 402.5,-300 402.5,-306 396.5,-312 390.5,-312"/>
<text text-anchor="middle" x="229" y="-293" font-family="Arial" font-size="15.00">6. Клиент передает сведения о контроллерах,</text>
<text text-anchor="middle" x="229" y="-276" font-family="Arial" font-size="15.00">конфигурациях, диагностике и файлах</text>
</g>
<!-- session&#45;&gt;upload -->
<g id="edge5" class="edge">
<title>session&#45;&gt;upload</title>
<path fill="none" stroke="#6b7280" d="M229,-351.95C229,-351.95 229,-319.52 229,-319.52"/>
<polygon fill="#6b7280" stroke="#6b7280" points="231.63,-319.52 229,-312.02 226.38,-319.52 231.63,-319.52"/>
</g>
<!-- validate -->
<g id="node7" class="node">
<title>validate</title>
<path fill="#ffffff" stroke="#2f5d9f" stroke-width="1.4" d="M334.5,-224C334.5,-224 123.5,-224 123.5,-224 117.5,-224 111.5,-218 111.5,-212 111.5,-212 111.5,-188 111.5,-188 111.5,-182 117.5,-176 123.5,-176 123.5,-176 334.5,-176 334.5,-176 340.5,-176 346.5,-182 346.5,-188 346.5,-188 346.5,-212 346.5,-212 346.5,-218 340.5,-224 334.5,-224"/>
<text text-anchor="middle" x="229" y="-205" font-family="Arial" font-size="15.00">7. Сервисный слой выполняет</text>
<text text-anchor="middle" x="229" y="-188" font-family="Arial" font-size="15.00">валидацию и обработку</text>
</g>
<!-- upload&#45;&gt;validate -->
<g id="edge6" class="edge">
<title>upload&#45;&gt;validate</title>
<path fill="none" stroke="#6b7280" d="M229,-263.95C229,-263.95 229,-231.52 229,-231.52"/>
<polygon fill="#6b7280" stroke="#6b7280" points="231.63,-231.52 229,-224.02 226.38,-231.52 231.63,-231.52"/>
</g>
<!-- meta -->
<g id="node8" class="node">
<title>meta</title>
<path fill="#ffffff" stroke="#2f5d9f" stroke-width="1.4" d="M210,-136C210,-136 12,-136 12,-136 6,-136 0,-130 0,-124 0,-124 0,-100 0,-100 0,-94 6,-88 12,-88 12,-88 210,-88 210,-88 216,-88 222,-94 222,-100 222,-100 222,-124 222,-124 222,-130 216,-136 210,-136"/>
<text text-anchor="middle" x="111" y="-117" font-family="Arial" font-size="15.00">8. Метаданные сохраняются</text>
<text text-anchor="middle" x="111" y="-100" font-family="Arial" font-size="15.00">в PostgreSQL</text>
</g>
<!-- validate&#45;&gt;meta -->
<g id="edge7" class="edge">
<title>validate&#45;&gt;meta</title>
<path fill="none" stroke="#6b7280" d="M166.75,-175.95C166.75,-175.95 166.75,-143.52 166.75,-143.52"/>
<polygon fill="#6b7280" stroke="#6b7280" points="169.38,-143.52 166.75,-136.02 164.13,-143.52 169.38,-143.52"/>
</g>
<!-- files -->
<g id="node9" class="node">
<title>files</title>
<path fill="#ffffff" stroke="#2f5d9f" stroke-width="1.4" d="M430,-136C430,-136 266,-136 266,-136 260,-136 254,-130 254,-124 254,-124 254,-100 254,-100 254,-94 260,-88 266,-88 266,-88 430,-88 430,-88 436,-88 442,-94 442,-100 442,-100 442,-124 442,-124 442,-130 436,-136 430,-136"/>
<text text-anchor="middle" x="348" y="-117" font-family="Arial" font-size="15.00">9. Файлы сохраняются</text>
<text text-anchor="middle" x="348" y="-100" font-family="Arial" font-size="15.00">в файловое хранилище</text>
</g>
<!-- validate&#45;&gt;files -->
<g id="edge8" class="edge">
<title>validate&#45;&gt;files</title>
<path fill="none" stroke="#6b7280" d="M300.25,-175.95C300.25,-175.95 300.25,-143.52 300.25,-143.52"/>
<polygon fill="#6b7280" stroke="#6b7280" points="302.88,-143.52 300.25,-136.02 297.63,-143.52 302.88,-143.52"/>
</g>
<!-- finish -->
<g id="node10" class="node">
<title>finish</title>
<path fill="#eef2ff" stroke="#2f5d9f" stroke-width="1.4" d="M396,-48C396,-48 62,-48 62,-48 56,-48 50,-42 50,-36 50,-36 50,-12 50,-12 50,-6 56,0 62,0 62,0 396,0 396,0 402,0 408,-6 408,-12 408,-12 408,-36 408,-36 408,-42 402,-48 396,-48"/>
<text text-anchor="middle" x="229" y="-29" font-family="Arial" font-size="15.00">10. Сервер возвращает результат обработки,</text>
<text text-anchor="middle" x="229" y="-12" font-family="Arial" font-size="15.00">данные становятся доступны в веб&#45;интерфейсе</text>
</g>
<!-- meta&#45;&gt;finish -->
<g id="edge9" class="edge">
<title>meta&#45;&gt;finish</title>
<path fill="none" stroke="#6b7280" d="M136,-87.95C136,-87.95 136,-55.52 136,-55.52"/>
<polygon fill="#6b7280" stroke="#6b7280" points="138.63,-55.52 136,-48.02 133.38,-55.52 138.63,-55.52"/>
</g>
<!-- files&#45;&gt;finish -->
<g id="edge10" class="edge">
<title>files&#45;&gt;finish</title>
<path fill="none" stroke="#6b7280" d="M331,-87.95C331,-87.95 331,-55.52 331,-55.52"/>
<polygon fill="#6b7280" stroke="#6b7280" points="333.63,-55.52 331,-48.02 328.38,-55.52 333.63,-55.52"/>
</g>
</g>
</svg>
